<svg width="311" height="65" viewBox="0 0 311 65" fill="none" xmlns="http://www.w3.org/2000/svg">
<g filter="url(#filter0_d_1_73)">
<path d="M109.749 56.896C107.559 56.896 105.511 56.6969 103.605 56.2987C101.728 55.9289 100.149 55.4311 98.8693 54.8053C97.5893 54.1796 96.5369 53.5822 95.712 53.0133C94.9156 52.4444 94.2471 51.8756 93.7067 51.3067L94.7733 40.9387C95.9396 42.5031 97.504 43.8684 99.4667 45.0347C101.429 46.1724 103.548 46.7413 105.824 46.7413C108.1 46.7413 109.735 46.4996 110.731 46.016C111.755 45.5324 112.267 44.6507 112.267 43.3707C112.267 42.0053 111.684 40.8391 110.517 39.872C109.38 38.9049 107.403 37.7387 104.587 36.3733C103.563 35.8613 102.695 35.4062 101.984 35.008C101.273 34.5813 100.32 33.8987 99.1253 32.96C97.9591 31.9929 97.0062 30.9973 96.2667 29.9733C95.5271 28.9209 94.8729 27.584 94.304 25.9627C93.7351 24.3129 93.4507 22.5493 93.4507 20.672C93.4507 10.5173 99.1822 5.44 110.645 5.44C112.466 5.44 114.172 5.63911 115.765 6.03733C117.387 6.40711 118.652 6.81955 119.563 7.27467C120.473 7.72978 121.298 8.27022 122.037 8.896C122.805 9.49333 123.289 9.92 123.488 10.176C123.687 10.4036 123.829 10.5884 123.915 10.7307L121.781 18.9653C120.672 17.6569 119.278 16.6898 117.6 16.064C115.95 15.4098 114.372 15.0827 112.864 15.0827C109.223 15.0827 107.403 16.2204 107.403 18.496C107.403 19.0933 107.516 19.6338 107.744 20.1173C107.972 20.6009 108.341 21.0418 108.853 21.44C109.365 21.8382 109.835 22.1796 110.261 22.464C110.716 22.7484 111.328 23.104 112.096 23.5307C112.892 23.9289 113.49 24.256 113.888 24.512C118.041 26.2756 121.084 28.3662 123.019 30.784C124.981 33.2018 125.963 36.1458 125.963 39.616C125.963 45.248 124.569 49.5431 121.781 52.5013C119.022 55.4311 115.012 56.896 109.749 56.896ZM140.937 56.896C137.097 56.896 134.409 55.744 132.873 53.44C131.365 51.136 130.612 47.2391 130.612 41.7493V27.2427H127.668V21.312L132.702 19.7333L137.054 9.792H144.564V19.7333H151.561V27.2427H144.436V43.1147C144.436 45.3902 144.763 46.8978 145.417 47.6373C146.071 48.3769 147.081 48.7467 148.446 48.7467C149.044 48.7467 149.584 48.6756 150.068 48.5333C150.551 48.3911 150.949 48.192 151.262 47.936V53.7387C150.836 54.1653 150.281 54.592 149.598 55.0187C148.916 55.4169 147.778 55.8293 146.185 56.256C144.621 56.6827 142.871 56.896 140.937 56.896ZM174.485 33.9413C174.485 30.3289 174.3 27.7689 173.931 26.2613C173.561 24.7538 172.878 24 171.883 24C171.029 24 170.332 24.1564 169.792 24.4693C169.252 24.7538 168.853 25.2231 168.597 25.8773C168.341 26.5031 168.171 27.1573 168.085 27.84C168.028 28.4942 168 29.3333 168 30.3573V33.9413H174.485ZM171.072 56.896C167.886 56.896 165.113 56.4124 162.752 55.4453C160.42 54.4782 158.571 53.1271 157.205 51.392C155.868 49.6569 154.887 47.7084 154.261 45.5467C153.636 43.3564 153.323 40.9244 153.323 38.2507C153.323 31.8791 154.944 27.0578 158.187 23.7867C161.429 20.5156 165.966 18.88 171.797 18.88C177.401 18.88 181.412 20.2027 183.829 22.848C186.247 25.4649 187.456 29.6889 187.456 35.52V40.256H167.957V41.0667C167.957 42.7449 168.128 44.1244 168.469 45.2053C168.839 46.2862 169.365 47.0827 170.048 47.5947C170.731 48.1067 171.428 48.448 172.139 48.6187C172.85 48.7893 173.717 48.8747 174.741 48.8747C175.737 48.8747 176.804 48.7467 177.941 48.4907C179.108 48.2347 180.274 47.8364 181.44 47.296C182.635 46.7556 183.63 46.1156 184.427 45.376L186.944 49.6853C185.892 51.392 184.341 52.8284 182.293 53.9947C180.274 55.1324 178.325 55.9004 176.448 56.2987C174.571 56.6969 172.779 56.896 171.072 56.896ZM202.062 56.896C198.222 56.896 195.534 55.744 193.998 53.44C192.49 51.136 191.737 47.2391 191.737 41.7493V27.2427H188.793V21.312L193.827 19.7333L198.179 9.792H205.689V19.7333H212.686V27.2427H205.561V43.1147C205.561 45.3902 205.888 46.8978 206.542 47.6373C207.196 48.3769 208.206 48.7467 209.571 48.7467C210.169 48.7467 210.709 48.6756 211.193 48.5333C211.676 48.3911 212.074 48.192 212.387 47.936V53.7387C211.961 54.1653 211.406 54.592 210.723 55.0187C210.041 55.4169 208.903 55.8293 207.31 56.256C205.746 56.6827 203.996 56.896 202.062 56.896ZM216.453 56V28.3947L213.893 26.816V22.2507L223.066 19.7333H230.192V56H216.453ZM222.64 15.808L215.642 8.768V7.27467L222.64 0.277332H224.261L231.557 7.27467V8.768L224.261 15.808H222.64ZM256.857 56L250.243 38.5493L257.241 19.7333H273.241L262.062 36.5013L273.497 56H256.857ZM235.481 56V7.744L232.921 6.208V2.24L246.617 0.106667H249.39V56H235.481ZM293.51 52.2027L293.083 52.672C292.799 53.0133 292.358 53.4116 291.761 53.8667C291.192 54.3218 290.523 54.7769 289.755 55.232C289.016 55.6871 288.106 56.0711 287.025 56.384C285.944 56.7253 284.834 56.896 283.697 56.896C276.017 56.896 272.177 53.0987 272.177 45.504C272.177 44.0249 272.447 42.6738 272.987 41.4507C273.528 40.1991 274.225 39.1467 275.078 38.2933C275.931 37.44 276.955 36.6862 278.15 36.032C279.345 35.3493 280.539 34.8231 281.734 34.4533C282.957 34.0551 284.237 33.728 285.574 33.472C286.911 33.216 288.106 33.0453 289.158 32.96C290.21 32.8747 291.22 32.832 292.187 32.832V32.064C292.187 30.3289 291.718 29.1058 290.779 28.3947C289.869 27.6836 288.39 27.328 286.342 27.328C284.578 27.328 282.744 27.5413 280.838 27.968C278.932 28.3662 277.439 28.8498 276.358 29.4187L273.627 23.616C275.562 22.3644 278.079 21.2693 281.179 20.3307C284.28 19.3636 287.437 18.88 290.651 18.88C293.496 18.88 295.842 19.1644 297.691 19.7333C299.54 20.2738 301.034 21.2124 302.171 22.5493C303.338 23.8578 304.162 25.536 304.646 27.584C305.13 29.6036 305.371 32.1778 305.371 35.3067V52.672L306.566 56H294.875L293.51 52.2027ZM290.139 49.3867C290.509 49.3867 290.85 49.3156 291.163 49.1733C291.505 49.0027 291.761 48.8462 291.931 48.704C292.102 48.5333 292.187 48.448 292.187 48.448V38.208C290.452 38.208 289.073 38.6916 288.049 39.6587C287.025 40.5973 286.513 42.0622 286.513 44.0533C286.513 47.6089 287.722 49.3867 290.139 49.3867Z" fill="#F2F1F1"/>
</g>
<path fill-rule="evenodd" clip-rule="evenodd" d="M41 63C63.6437 63 82 55.7218 82 33.1237C82 10.5256 63.6437 0 41 0C18.3563 0 0 10.5256 0 33.1237C0 55.7218 18.3563 63 41 63ZM47.9588 15.5749C43.8924 11.5167 37.2994 11.5167 33.233 15.5749L23.4158 25.3723C19.3494 29.4306 19.3494 36.0102 23.4158 40.0685L33.233 49.8659C37.2994 53.9241 43.8924 53.9241 47.9588 49.8659L57.7759 40.0685C61.8424 36.0102 61.8424 29.4306 57.7759 25.3723L47.9588 15.5749Z" fill="#303952"/>
<defs>
<filter id="filter0_d_1_73" x="89.4507" y="0.106659" width="221.115" height="64.7893" filterUnits="userSpaceOnUse" color-interpolation-filters="sRGB">
<feFlood flood-opacity="0" result="BackgroundImageFix"/>
<feColorMatrix in="SourceAlpha" type="matrix" values="0 0 0 0 0 0 0 0 0 0 0 0 0 0 0 0 0 0 127 0" result="hardAlpha"/>
<feOffset dy="4"/>
<feGaussianBlur stdDeviation="2"/>
<feComposite in2="hardAlpha" operator="out"/>
<feColorMatrix type="matrix" values="0 0 0 0 0.968627 0 0 0 0 0.560784 0 0 0 0 0.701961 0 0 0 1 0"/>
<feBlend mode="normal" in2="BackgroundImageFix" result="effect1_dropShadow_1_73"/>
<feBlend mode="normal" in="SourceGraphic" in2="effect1_dropShadow_1_73" result="shape"/>
</filter>
</defs>
</svg>
